<svg xmlns="http://www.w3.org/2000/svg" xmlns:xlink="http://www.w3.org/1999/xlink" width="40" zoomAndPan="magnify" viewBox="0 0 30 30.000001" height="40" preserveAspectRatio="xMidYMid meet" version="1.0"><defs><clipPath id="10d5c8ce79"><path d="M 5.9375 1.886719 L 24.082031 1.886719 L 24.082031 27.289062 L 5.9375 27.289062 Z M 5.9375 1.886719 " clip-rule="nonzero"/></clipPath><clipPath id="3ee38c15ee"><path d="M 12 20 L 13 20 L 13 21.339844 L 12 21.339844 Z M 12 20 " clip-rule="nonzero"/></clipPath><clipPath id="afdba8e732"><path d="M 12 20 L 14 20 L 14 21.339844 L 12 21.339844 Z M 12 20 " clip-rule="nonzero"/></clipPath><clipPath id="e11fd3bd58"><path d="M 13 20 L 14 20 L 14 21.339844 L 13 21.339844 Z M 13 20 " clip-rule="nonzero"/></clipPath><clipPath id="772b2418cf"><path d="M 13 20 L 15 20 L 15 21.339844 L 13 21.339844 Z M 13 20 " clip-rule="nonzero"/></clipPath><clipPath id="08eeb83ec9"><path d="M 14 20 L 15 20 L 15 21.339844 L 14 21.339844 Z M 14 20 " clip-rule="nonzero"/></clipPath><clipPath id="14279b9f05"><path d="M 16 20 L 17 20 L 17 21.339844 L 16 21.339844 Z M 16 20 " clip-rule="nonzero"/></clipPath><clipPath id="93d438ddb7"><path d="M 16 20 L 17 20 L 17 21.339844 L 16 21.339844 Z M 16 20 " clip-rule="nonzero"/></clipPath><clipPath id="5da70f7170"><path d="M 16 20 L 18 20 L 18 21.339844 L 16 21.339844 Z M 16 20 " clip-rule="nonzero"/></clipPath><clipPath id="53d4594ba0"><path d="M 17 20 L 19 20 L 19 21.339844 L 17 21.339844 Z M 17 20 " clip-rule="nonzero"/></clipPath><clipPath id="5cfaf8b25a"><path d="M 18 20 L 19.324219 20 L 19.324219 21.339844 L 18 21.339844 Z M 18 20 " clip-rule="nonzero"/></clipPath><clipPath id="5a7aa32304"><path d="M 10.617188 18.433594 L 19 18.433594 L 19 21.339844 L 10.617188 21.339844 Z M 10.617188 18.433594 " clip-rule="nonzero"/></clipPath></defs><g clip-path="url(#10d5c8ce79)"><path fill="#2e2d2d" d="M 18.722656 16.898438 C 17.644531 17.59375 16.371094 18.003906 15.011719 18 C 13.667969 18 12.394531 17.59375 11.3125 16.894531 C 9.378906 15.640625 8.0625 13.457031 8.066406 11.011719 C 8.066406 10.992188 8.066406 10.96875 8.066406 10.945312 C 8.09375 7.164062 11.269531 4.03125 15.019531 4.03125 C 18.753906 4.035156 21.933594 7.199219 21.96875 10.949219 C 21.96875 10.972656 21.96875 10.996094 21.96875 11.019531 C 21.96875 13.449219 20.664062 15.644531 18.722656 16.898438 Z M 24.027344 9.941406 C 23.5 5.417969 19.667969 1.90625 15.023438 1.902344 C 10.375 1.898438 6.542969 5.40625 6.007812 9.929688 C 5.964844 10.285156 5.945312 10.644531 5.945312 11.011719 C 5.945312 12.675781 6.253906 14.238281 6.960938 15.707031 C 7.09375 15.988281 7.300781 16.371094 7.496094 16.722656 C 7.792969 17.253906 13.726562 26.3125 13.726562 26.3125 C 14.304688 27.289062 15.710938 27.289062 16.289062 26.3125 C 16.289062 26.3125 22.316406 17.136719 22.636719 16.539062 C 22.789062 16.261719 22.929688 15.984375 23.066406 15.699219 C 23.769531 14.238281 24.089844 12.703125 24.089844 11.023438 C 24.089844 10.65625 24.070312 10.296875 24.027344 9.941406 " fill-opacity="1" fill-rule="nonzero"/></g><path fill="#2e2d2d" d="M 19.351562 12.648438 C 18.691406 12.496094 17.941406 12.417969 17.144531 12.414062 C 16.539062 12.414062 15.996094 12.480469 15.523438 12.609375 C 15.507812 12.613281 15.492188 12.617188 15.476562 12.621094 L 15.476562 8.3125 C 15.921875 8.144531 16.488281 8.054688 17.140625 8.054688 C 17.164062 8.054688 17.183594 8.054688 17.207031 8.054688 C 18 8.058594 18.730469 8.152344 19.351562 8.316406 Z M 14.558594 8.320312 L 14.558594 12.621094 C 14.542969 12.617188 14.527344 12.613281 14.511719 12.609375 C 14.039062 12.480469 13.496094 12.414062 12.890625 12.414062 C 12.09375 12.417969 11.34375 12.496094 10.683594 12.648438 L 10.683594 8.316406 C 11.304688 8.152344 12.035156 8.058594 12.828125 8.054688 C 12.851562 8.054688 12.871094 8.054688 12.894531 8.054688 C 13.546875 8.054688 14.113281 8.144531 14.558594 8.3125 Z M 19.84375 7.953125 C 19.09375 7.699219 18.167969 7.5625 17.140625 7.5625 C 16.285156 7.5625 15.558594 7.703125 15.019531 7.976562 C 14.476562 7.703125 13.75 7.5625 12.894531 7.5625 C 11.867188 7.5625 10.941406 7.699219 10.191406 7.953125 L 9.707031 8.480469 L 9.707031 14.367188 C 10.535156 14.085938 11.554688 13.9375 12.679688 13.9375 C 13.417969 13.9375 14.0625 14.03125 14.59375 14.214844 L 14.59375 14.246094 C 14.59375 14.371094 14.699219 14.472656 14.824219 14.472656 L 15.210938 14.472656 C 15.339844 14.472656 15.441406 14.371094 15.441406 14.246094 L 15.441406 14.214844 C 15.972656 14.03125 16.617188 13.9375 17.355469 13.9375 C 18.480469 13.9375 19.5 14.085938 20.328125 14.367188 L 20.328125 8.480469 L 19.84375 7.953125 " fill-opacity="1" fill-rule="nonzero"/><path fill="#2e2d2d" d="M 15.835938 8.980469 C 15.769531 9.003906 15.726562 9.066406 15.726562 9.136719 L 15.726562 9.144531 C 15.726562 9.238281 15.800781 9.3125 15.894531 9.3125 C 15.929688 9.3125 15.964844 9.300781 15.992188 9.28125 C 16.316406 9.164062 16.734375 9.105469 17.203125 9.105469 C 17.21875 9.105469 17.234375 9.105469 17.25 9.105469 C 17.851562 9.109375 18.421875 9.179688 18.894531 9.304688 C 18.984375 9.328125 19.074219 9.277344 19.101562 9.183594 C 19.125 9.09375 19.070312 9 18.980469 8.976562 C 18.480469 8.84375 17.882812 8.769531 17.253906 8.765625 C 17.234375 8.765625 17.21875 8.765625 17.203125 8.765625 C 16.667969 8.765625 16.207031 8.835938 15.835938 8.980469 " fill-opacity="1" fill-rule="nonzero"/><path fill="#2e2d2d" d="M 18.976562 9.851562 C 18.476562 9.71875 17.882812 9.644531 17.25 9.640625 C 17.234375 9.640625 17.214844 9.640625 17.199219 9.640625 C 16.664062 9.640625 16.203125 9.710938 15.832031 9.855469 C 15.765625 9.878906 15.722656 9.941406 15.722656 10.011719 L 15.722656 10.019531 C 15.722656 10.113281 15.800781 10.1875 15.890625 10.1875 C 15.929688 10.1875 15.964844 10.175781 15.992188 10.15625 C 16.3125 10.039062 16.730469 9.980469 17.199219 9.980469 C 17.214844 9.980469 17.230469 9.980469 17.246094 9.980469 C 17.851562 9.984375 18.417969 10.054688 18.890625 10.179688 C 18.980469 10.203125 19.074219 10.152344 19.097656 10.0625 C 19.121094 9.96875 19.066406 9.875 18.976562 9.851562 " fill-opacity="1" fill-rule="nonzero"/><path fill="#2e2d2d" d="M 18.976562 10.726562 C 18.476562 10.59375 17.882812 10.519531 17.25 10.515625 C 17.234375 10.515625 17.214844 10.515625 17.199219 10.515625 C 16.664062 10.515625 16.203125 10.585938 15.832031 10.730469 C 15.765625 10.753906 15.722656 10.816406 15.722656 10.886719 L 15.722656 10.894531 C 15.722656 10.988281 15.800781 11.0625 15.890625 11.0625 C 15.929688 11.0625 15.964844 11.050781 15.992188 11.03125 C 16.3125 10.914062 16.730469 10.855469 17.199219 10.855469 C 17.214844 10.855469 17.230469 10.855469 17.246094 10.855469 C 17.851562 10.859375 18.417969 10.929688 18.890625 11.054688 C 18.980469 11.078125 19.074219 11.027344 19.097656 10.933594 C 19.121094 10.84375 19.066406 10.75 18.976562 10.726562 " fill-opacity="1" fill-rule="nonzero"/><path fill="#2e2d2d" d="M 18.976562 11.601562 C 18.476562 11.46875 17.882812 11.394531 17.25 11.390625 C 17.234375 11.390625 17.214844 11.390625 17.199219 11.390625 C 16.664062 11.390625 16.203125 11.460938 15.832031 11.605469 C 15.765625 11.628906 15.722656 11.691406 15.722656 11.761719 L 15.722656 11.769531 C 15.722656 11.863281 15.800781 11.9375 15.890625 11.9375 C 15.929688 11.9375 15.964844 11.925781 15.992188 11.90625 C 16.3125 11.789062 16.730469 11.730469 17.199219 11.730469 C 17.214844 11.730469 17.230469 11.730469 17.246094 11.730469 C 17.851562 11.734375 18.417969 11.804688 18.890625 11.929688 C 18.980469 11.953125 19.074219 11.902344 19.097656 11.808594 C 19.121094 11.71875 19.066406 11.625 18.976562 11.601562 " fill-opacity="1" fill-rule="nonzero"/><path fill="#2e2d2d" d="M 12.78125 8.765625 C 12.152344 8.769531 11.554688 8.84375 11.054688 8.976562 C 10.964844 9 10.910156 9.09375 10.933594 9.183594 C 10.960938 9.277344 11.050781 9.328125 11.140625 9.304688 C 11.613281 9.179688 12.183594 9.109375 12.785156 9.105469 C 12.800781 9.105469 12.816406 9.105469 12.832031 9.105469 C 13.300781 9.105469 13.71875 9.164062 14.042969 9.28125 C 14.070312 9.300781 14.105469 9.3125 14.140625 9.3125 C 14.234375 9.3125 14.308594 9.238281 14.308594 9.144531 L 14.308594 9.136719 C 14.308594 9.066406 14.265625 9.003906 14.199219 8.980469 C 13.828125 8.835938 13.367188 8.765625 12.832031 8.765625 C 12.816406 8.765625 12.800781 8.765625 12.78125 8.765625 " fill-opacity="1" fill-rule="nonzero"/><path fill="#2e2d2d" d="M 14.203125 9.855469 C 13.832031 9.710938 13.371094 9.640625 12.835938 9.640625 C 12.820312 9.640625 12.800781 9.640625 12.785156 9.640625 C 12.152344 9.644531 11.558594 9.71875 11.058594 9.851562 C 10.96875 9.875 10.914062 9.96875 10.9375 10.0625 C 10.960938 10.152344 11.054688 10.203125 11.144531 10.179688 C 11.617188 10.054688 12.183594 9.984375 12.789062 9.980469 C 12.804688 9.980469 12.820312 9.980469 12.835938 9.980469 C 13.304688 9.980469 13.722656 10.039062 14.042969 10.15625 C 14.070312 10.175781 14.105469 10.1875 14.144531 10.1875 C 14.234375 10.1875 14.3125 10.113281 14.3125 10.019531 L 14.3125 10.011719 C 14.3125 9.941406 14.269531 9.878906 14.203125 9.855469 " fill-opacity="1" fill-rule="nonzero"/><path fill="#2e2d2d" d="M 14.203125 10.730469 C 13.832031 10.585938 13.371094 10.515625 12.835938 10.515625 C 12.820312 10.515625 12.800781 10.515625 12.785156 10.515625 C 12.152344 10.519531 11.558594 10.59375 11.058594 10.726562 C 10.96875 10.75 10.914062 10.84375 10.9375 10.933594 C 10.960938 11.027344 11.054688 11.078125 11.144531 11.054688 C 11.617188 10.929688 12.183594 10.859375 12.789062 10.855469 C 12.804688 10.855469 12.820312 10.855469 12.835938 10.855469 C 13.304688 10.855469 13.722656 10.914062 14.042969 11.03125 C 14.070312 11.050781 14.105469 11.0625 14.144531 11.0625 C 14.234375 11.0625 14.3125 10.988281 14.3125 10.894531 L 14.3125 10.886719 C 14.3125 10.816406 14.269531 10.753906 14.203125 10.730469 " fill-opacity="1" fill-rule="nonzero"/><path fill="#2e2d2d" d="M 14.203125 11.605469 C 13.832031 11.460938 13.371094 11.390625 12.835938 11.390625 C 12.820312 11.390625 12.800781 11.390625 12.785156 11.390625 C 12.152344 11.394531 11.558594 11.46875 11.058594 11.601562 C 10.96875 11.625 10.914062 11.71875 10.9375 11.808594 C 10.960938 11.902344 11.054688 11.953125 11.144531 11.929688 C 11.617188 11.804688 12.183594 11.734375 12.789062 11.730469 C 12.804688 11.730469 12.820312 11.730469 12.835938 11.730469 C 13.304688 11.730469 13.722656 11.789062 14.042969 11.90625 C 14.070312 11.925781 14.105469 11.9375 14.144531 11.9375 C 14.234375 11.9375 14.3125 11.863281 14.3125 11.769531 L 14.3125 11.761719 C 14.3125 11.691406 14.269531 11.628906 14.203125 11.605469 " fill-opacity="1" fill-rule="nonzero"/><g clip-path="url(#3ee38c15ee)"><path fill="#ffffff" d="M 12.3125 20.664062 L 12.023438 20.664062 L 12.023438 21.382812 L 12.226562 21.382812 L 12.226562 21.152344 L 12.316406 21.152344 C 12.488281 21.152344 12.574219 21.070312 12.574219 20.902344 C 12.574219 20.738281 12.480469 20.664062 12.3125 20.664062 M 12.226562 20.832031 L 12.246094 20.832031 C 12.320312 20.832031 12.367188 20.835938 12.367188 20.910156 C 12.367188 20.984375 12.320312 20.984375 12.246094 20.984375 L 12.226562 20.984375 Z M 12.226562 20.832031 " fill-opacity="1" fill-rule="nonzero"/></g><g clip-path="url(#afdba8e732)"><path fill="#ffffff" d="M 12.9375 21.152344 C 12.9375 21.21875 12.917969 21.242188 12.863281 21.242188 C 12.8125 21.242188 12.792969 21.21875 12.792969 21.152344 L 12.792969 20.886719 L 12.597656 20.886719 L 12.597656 21.183594 C 12.597656 21.328125 12.6875 21.402344 12.863281 21.402344 C 13.039062 21.402344 13.128906 21.328125 13.128906 21.183594 L 13.128906 20.886719 L 12.9375 20.886719 Z M 12.9375 21.152344 " fill-opacity="1" fill-rule="nonzero"/></g><g clip-path="url(#e11fd3bd58)"><path fill="#ffffff" d="M 13.488281 20.871094 C 13.4375 20.871094 13.390625 20.886719 13.355469 20.917969 L 13.355469 20.59375 L 13.160156 20.59375 L 13.160156 21.386719 L 13.355469 21.386719 L 13.355469 21.355469 C 13.386719 21.382812 13.433594 21.402344 13.488281 21.402344 C 13.628906 21.402344 13.738281 21.285156 13.738281 21.136719 C 13.738281 20.992188 13.628906 20.875 13.488281 20.875 M 13.539062 21.136719 C 13.539062 21.195312 13.5 21.230469 13.445312 21.230469 C 13.386719 21.230469 13.347656 21.195312 13.347656 21.136719 C 13.347656 21.078125 13.386719 21.042969 13.445312 21.042969 C 13.5 21.042969 13.539062 21.082031 13.539062 21.136719 " fill-opacity="1" fill-rule="nonzero"/><path fill="#ffffff" d="M 13.761719 21.386719 L 13.953125 21.386719 L 13.953125 20.59375 L 13.761719 20.59375 Z M 13.761719 21.386719 " fill-opacity="1" fill-rule="nonzero"/></g><g clip-path="url(#772b2418cf)"><path fill="#ffffff" d="M 13.984375 21.386719 L 14.179688 21.386719 L 14.179688 20.886719 L 13.984375 20.886719 Z M 13.984375 21.386719 " fill-opacity="1" fill-rule="nonzero"/></g><path fill="#ffffff" d="M 14.082031 20.609375 C 14.023438 20.609375 13.976562 20.65625 13.976562 20.714844 C 13.976562 20.773438 14.023438 20.820312 14.082031 20.820312 C 14.140625 20.820312 14.1875 20.773438 14.1875 20.714844 C 14.1875 20.65625 14.140625 20.609375 14.082031 20.609375 " fill-opacity="1" fill-rule="nonzero"/><g clip-path="url(#08eeb83ec9)"><path fill="#ffffff" d="M 14.476562 20.871094 C 14.316406 20.871094 14.199219 20.984375 14.199219 21.140625 C 14.199219 21.296875 14.316406 21.402344 14.46875 21.402344 C 14.621094 21.402344 14.554688 21.390625 14.59375 21.375 L 14.597656 21.371094 L 14.597656 21.191406 L 14.578125 21.210938 C 14.5625 21.226562 14.53125 21.238281 14.503906 21.238281 C 14.441406 21.238281 14.398438 21.195312 14.398438 21.136719 C 14.398438 21.074219 14.445312 21.03125 14.5 21.03125 C 14.558594 21.03125 14.550781 21.042969 14.582031 21.0625 L 14.601562 21.078125 L 14.601562 20.902344 L 14.59375 20.902344 C 14.5625 20.882812 14.519531 20.871094 14.476562 20.871094 " fill-opacity="1" fill-rule="nonzero"/></g><g clip-path="url(#14279b9f05)"><path fill="#ffffff" d="M 16.253906 20.664062 L 16.050781 20.664062 L 16.050781 21.386719 L 16.472656 21.386719 L 16.472656 21.207031 L 16.253906 21.207031 Z M 16.253906 20.664062 " fill-opacity="1" fill-rule="nonzero"/></g><path fill="#ffffff" d="M 16.597656 20.609375 C 16.539062 20.609375 16.492188 20.65625 16.492188 20.714844 C 16.492188 20.773438 16.539062 20.820312 16.597656 20.820312 C 16.65625 20.820312 16.703125 20.773438 16.703125 20.714844 C 16.703125 20.65625 16.65625 20.609375 16.597656 20.609375 " fill-opacity="1" fill-rule="nonzero"/><g clip-path="url(#93d438ddb7)"><path fill="#ffffff" d="M 16.5 21.386719 L 16.691406 21.386719 L 16.691406 20.886719 L 16.5 20.886719 Z M 16.5 21.386719 " fill-opacity="1" fill-rule="nonzero"/></g><g clip-path="url(#5da70f7170)"><path fill="#ffffff" d="M 17.054688 20.871094 C 17 20.871094 16.953125 20.886719 16.917969 20.917969 L 16.917969 20.59375 L 16.726562 20.59375 L 16.726562 21.386719 L 16.917969 21.386719 L 16.917969 21.355469 C 16.949219 21.382812 17 21.402344 17.050781 21.402344 C 17.191406 21.402344 17.304688 21.285156 17.304688 21.136719 C 17.304688 20.992188 17.195312 20.875 17.054688 20.875 M 17.105469 21.136719 C 17.105469 21.195312 17.066406 21.230469 17.007812 21.230469 C 16.949219 21.230469 16.910156 21.195312 16.910156 21.136719 C 16.910156 21.078125 16.953125 21.042969 17.007812 21.042969 C 17.066406 21.042969 17.105469 21.082031 17.105469 21.136719 " fill-opacity="1" fill-rule="nonzero"/></g><g clip-path="url(#53d4594ba0)"><path fill="#ffffff" d="M 18.074219 20.917969 C 18.039062 20.886719 17.992188 20.871094 17.941406 20.871094 C 17.832031 20.871094 17.742188 20.941406 17.707031 21.042969 L 17.707031 20.886719 L 17.660156 20.886719 C 17.601562 20.886719 17.550781 20.910156 17.519531 20.949219 L 17.519531 20.890625 L 17.324219 20.890625 L 17.324219 21.386719 L 17.519531 21.386719 L 17.519531 21.183594 C 17.519531 21.09375 17.550781 21.050781 17.621094 21.050781 C 17.695312 21.050781 17.667969 21.054688 17.6875 21.066406 L 17.699219 21.074219 C 17.691406 21.09375 17.691406 21.117188 17.691406 21.136719 C 17.691406 21.289062 17.800781 21.402344 17.941406 21.402344 C 18.082031 21.402344 18.042969 21.386719 18.074219 21.355469 L 18.074219 21.386719 L 18.269531 21.386719 L 18.269531 20.890625 L 18.074219 20.890625 L 18.074219 20.921875 Z M 18.082031 21.136719 C 18.082031 21.195312 18.042969 21.230469 17.984375 21.230469 C 17.925781 21.230469 17.890625 21.195312 17.890625 21.136719 C 17.890625 21.078125 17.929688 21.042969 17.984375 21.042969 C 18.042969 21.042969 18.082031 21.082031 18.082031 21.136719 " fill-opacity="1" fill-rule="nonzero"/></g><g clip-path="url(#5cfaf8b25a)"><path fill="#ffffff" d="M 19.132812 20.886719 L 19.015625 21.117188 L 18.894531 20.886719 L 18.683594 20.886719 C 18.683594 20.886719 18.640625 20.886719 18.640625 20.886719 C 18.578125 20.886719 18.53125 20.90625 18.496094 20.949219 L 18.496094 20.886719 L 18.304688 20.886719 L 18.304688 21.386719 L 18.496094 21.386719 L 18.496094 21.183594 C 18.496094 21.089844 18.527344 21.050781 18.601562 21.050781 C 18.671875 21.050781 18.644531 21.050781 18.667969 21.066406 L 18.683594 21.074219 L 18.683594 20.917969 L 18.90625 21.308594 L 18.738281 21.621094 L 18.953125 21.621094 L 19.347656 20.882812 L 19.128906 20.882812 Z M 19.132812 20.886719 " fill-opacity="1" fill-rule="nonzero"/></g><g clip-path="url(#5a7aa32304)"><path fill="#ffffff" d="M 13.511719 19.582031 L 14.058594 19.15625 L 14.058594 20.300781 Z M 12.222656 19.585938 C 12.15625 19.519531 12.09375 19.488281 12.011719 19.449219 C 12.09375 19.410156 12.152344 19.375 12.222656 19.308594 C 12.265625 19.261719 12.292969 19.210938 12.3125 19.164062 L 12.3125 19.730469 C 12.296875 19.683594 12.265625 19.632812 12.222656 19.585938 M 11.640625 19.164062 C 11.589844 19.230469 11.503906 19.230469 11.433594 19.230469 L 11.316406 19.230469 L 11.316406 18.914062 L 11.433594 18.914062 C 11.476562 18.914062 11.546875 18.914062 11.585938 18.933594 C 11.617188 18.945312 11.667969 18.984375 11.667969 19.070312 C 11.667969 19.15625 11.660156 19.136719 11.640625 19.164062 M 11.582031 19.960938 C 11.542969 19.976562 11.472656 19.976562 11.433594 19.976562 L 11.3125 19.976562 L 11.3125 19.660156 L 11.429688 19.660156 C 11.5 19.660156 11.585938 19.660156 11.636719 19.726562 C 11.660156 19.753906 11.667969 19.785156 11.667969 19.820312 C 11.667969 19.90625 11.613281 19.945312 11.582031 19.957031 M 17.9375 19.242188 C 17.808594 19.070312 17.609375 19.054688 17.542969 19.054688 C 17.273438 19.054688 17.121094 19.242188 17.066406 19.304688 L 17.074219 19.082031 L 15.804688 19.082031 L 15.609375 19.792969 L 15.402344 19.082031 L 14.734375 19.082031 L 14.734375 18.433594 L 14.054688 18.433594 L 14.054688 19.089844 L 13.332031 19.089844 L 12.976562 19.371094 L 12.976562 18.433594 L 12.3125 18.433594 L 12.3125 18.808594 C 12.296875 18.765625 12.273438 18.71875 12.238281 18.675781 C 12.195312 18.625 12.148438 18.582031 12.09375 18.546875 C 11.925781 18.445312 11.753906 18.441406 11.5625 18.4375 L 10.648438 18.4375 L 10.648438 20.457031 L 11.5625 20.457031 C 11.753906 20.457031 11.925781 20.453125 12.09375 20.347656 C 12.148438 20.3125 12.199219 20.269531 12.238281 20.21875 C 12.277344 20.171875 12.296875 20.128906 12.3125 20.085938 L 12.3125 20.453125 L 12.976562 20.453125 L 12.976562 20.070312 L 13.050781 20.007812 L 13.417969 20.453125 L 14.054688 20.453125 C 14.054688 20.453125 14.734375 20.453125 14.734375 20.453125 L 14.734375 19.222656 L 15.257812 20.367188 L 14.769531 21.386719 L 15.488281 21.386719 L 16.4375 19.242188 L 16.4375 20.453125 L 17.117188 20.453125 L 17.117188 19.75 C 17.117188 19.738281 17.109375 19.652344 17.164062 19.609375 C 17.191406 19.589844 17.222656 19.589844 17.234375 19.589844 C 17.269531 19.589844 17.335938 19.601562 17.355469 19.6875 C 17.355469 19.699219 17.355469 19.71875 17.355469 19.75 L 17.355469 20.453125 L 18.035156 20.453125 L 18.035156 19.683594 C 18.035156 19.53125 18.03125 19.375 17.9375 19.246094 " fill-opacity="1" fill-rule="nonzero"/></g></svg>